<?xml version="1.0" encoding="UTF-8"?>
<svg id="Layer_1" data-name="Layer 1" xmlns="http://www.w3.org/2000/svg" viewBox="0 0 180 180">
  <defs>
    <style>
      .cls-1 {
        fill: #00da88;
      }
    </style>
  </defs>
  <rect class="cls-1" width="180" height="180"/>
  <g id="Logo">
    <path d="m83,130.75c4.95-24.77,15.79-55.1,40.72-65.79,3.52-1.44,7.22-2.36,10.97-2.78-7.39,1.29-14.3,4.72-19.92,9.62-16.7,15.07-22.92,38.28-25.83,59.85,0,0-5.93-.91-5.93-.91h0Z"/>
    <path d="m92.92,100.93c-2.69-9.65-12.58-37.4-24.99-35.74-10.08-.04-15.39,9.66-20.33,17.09,3.97-10.37,10.25-20.06,22.71-19.4,8.75.82,14.95,12.09,18.58,19.1,2.86,5.83,5.06,11.96,6.76,18.19,0,0-2.74.76-2.74.76h0Z"/>
    <path d="m42.54,68.59c-6.68,5.79-9.7,15.92-6.07,24.11,0,0-2.77-3.55-2.77-3.55,3.53,1.96,7.7,2.95,11.89,2.76,8.67-.32,16.88-5.99,20.43-14.06,1.86-4.11,2.59-8.82,2-13.46,0,0,.84,1.07.84,1.07-8.26-4.7-19.32-3.18-26.33,3.12h0Zm-2.05-2.64c8.75-6.22,20.45-7.04,30.27-2.96,1.48,5.33,1.44,11.1-.27,16.53-5.15,16.9-24.7,25.45-40.96,18.59,0,0-2.71-1.11-2.71-1.11l-.06-2.44c-.46-11.11,4.52-22.33,13.74-28.61h0Z"/>
    <path d="m118.96,56.92c-8.65,5.32-14.92,15.67-13.31,25.99,0,0-1.23-1.75-1.23-1.75,9.04,5.23,21.23,2.97,29.24-3.36,7.77-5.81,13.09-16.94,9.5-26.11,0,0,3.29,4.68,3.29,4.68-7.92-5.88-19.42-4.52-27.5.55h0Zm-2.52-3.57c9.63-7.6,22.67-10.67,34.67-7.25,0,0,3.75,1.03,3.75,1.03l-.45,3.65c-2.19,18.37-16.77,33.09-34.65,35.78-6.03.91-12.4.26-18.31-1.99-.54-12.14,5.46-23.86,14.99-31.23h0Z"/>
  </g>
</svg>