<?xml version="1.0" encoding="UTF-8"?>
<svg id="Layer_1" data-name="Layer 1" xmlns="http://www.w3.org/2000/svg" viewBox="0 0 180 180">
  <defs>
    <style>
      .cls-1 {
        fill: none;
        stroke: #000;
        stroke-miterlimit: 10;
      }

      .cls-2 {
        fill: #f5f5f5;
      }

      .cls-3 {
        font-family: MontserratRoman-Black, Montserrat;
        font-size: 23px;
        font-variation-settings: 'wght' 900;
        font-weight: 800;
      }

      .cls-4 {
        letter-spacing: -.03em;
      }

      .cls-5 {
        fill: #00da88;
        letter-spacing: 0em;
      }
    </style>
  </defs>
  <g id="Light">
    <rect id="Background_Light" class="cls-2" x="0" y=".35" width="180" height="180"/>
    <g>
      <text class="cls-3" transform="translate(8.26 113.88)"><tspan x="0" y="0">Neu</tspan><tspan class="cls-4" x="49.56" y="0">r</tspan><tspan x="59.36" y="0">al</tspan><tspan class="cls-5" x="81.56" y="0">Kissan</tspan></text>
      <g id="Logo">
        <path d="m87.52,91.87c2.44-13.79,8.73-31.53,24.49-33.92-11.53,1.72-18.06,13.03-21.12,23.29-1.07,3.53-1.87,7.14-2.38,10.78l-.99-.15h0Z"/>
        <path d="m91.81,76.93c-1.49-5.11-6.13-18.51-12.7-17.8-5.03.03-7.76,4.86-9.99,8.72,2.13-4.97,5.62-10.1,11.8-9.17,6.14,2,9.83,12.35,11.51,18.08,0,0-.61.17-.61.17h0Z"/>
        <path class="cls-1" d="m66.11,60.46c-4.07,3.17-5.79,8.24-4.88,12.99,4.38,2.04,9.71,1.62,13.78-1.56s5.79-8.24,4.88-12.99c-4.38-2.04-9.71-1.62-13.78,1.56Z"/>
        <path class="cls-1" d="m103.65,54.47c-4.86,3.42-7.38,8.79-6.97,13.77,4.55,2.06,10.45,1.5,15.31-1.92s7.38-8.79,6.97-13.77c-4.55-2.06-10.45-1.5-15.31,1.92Z"/>
      </g>
    </g>
  </g>
</svg>